<svg width="820" height="280" viewBox="0 0 820 280" xmlns="http://www.w3.org/2000/svg">
  <rect width="820" height="280" fill="#08050f"/>

  <!-- grid -->
  <line x1="82"  y1="0" x2="82"  y2="280" stroke="#a855f7" stroke-width="0.5" opacity="0.12"/>
  <line x1="164" y1="0" x2="164" y2="280" stroke="#a855f7" stroke-width="0.5" opacity="0.12"/>
  <line x1="246" y1="0" x2="246" y2="280" stroke="#a855f7" stroke-width="0.5" opacity="0.12"/>
  <line x1="328" y1="0" x2="328" y2="280" stroke="#a855f7" stroke-width="0.5" opacity="0.12"/>
  <line x1="410" y1="0" x2="410" y2="280" stroke="#a855f7" stroke-width="0.5" opacity="0.12"/>
  <line x1="492" y1="0" x2="492" y2="280" stroke="#a855f7" stroke-width="0.5" opacity="0.12"/>
  <line x1="574" y1="0" x2="574" y2="280" stroke="#a855f7" stroke-width="0.5" opacity="0.12"/>
  <line x1="656" y1="0" x2="656" y2="280" stroke="#a855f7" stroke-width="0.5" opacity="0.12"/>
  <line x1="738" y1="0" x2="738" y2="280" stroke="#a855f7" stroke-width="0.5" opacity="0.12"/>
  <line x1="0" y1="70"  x2="820" y2="70"  stroke="#a855f7" stroke-width="0.5" opacity="0.12"/>
  <line x1="0" y1="140" x2="820" y2="140" stroke="#a855f7" stroke-width="0.5" opacity="0.12"/>
  <line x1="0" y1="210" x2="820" y2="210" stroke="#a855f7" stroke-width="0.5" opacity="0.12"/>

  <!-- rain -->
  <line x1="60"  y1="0"  x2="56"  y2="55" stroke="#c026d3" stroke-width="1" opacity="0.2"/>
  <line x1="180" y1="5"  x2="176" y2="70" stroke="#c026d3" stroke-width="1" opacity="0.15"/>
  <line x1="350" y1="0"  x2="346" y2="65" stroke="#c026d3" stroke-width="1" opacity="0.18"/>
  <line x1="500" y1="8"  x2="496" y2="72" stroke="#c026d3" stroke-width="1" opacity="0.22"/>
  <line x1="660" y1="0"  x2="656" y2="80" stroke="#c026d3" stroke-width="1" opacity="0.16"/>
  <line x1="760" y1="10" x2="756" y2="75" stroke="#c026d3" stroke-width="1" opacity="0.19"/>

  <!-- top bar -->
  <rect x="0" y="0" width="820" height="38" fill="#0d0818"/>
  <rect x="0" y="37" width="820" height="1.5" fill="#a855f7" opacity="0.5"/>
  <circle cx="20" cy="19" r="5" fill="#c026d3"/>
  <circle cx="34" cy="19" r="5" fill="#a855f7" opacity="0.5"/>
  <circle cx="48" cy="19" r="5" fill="#7c3aed" opacity="0.3"/>
  <text x="64" y="25" font-family="Courier New, monospace" font-size="11" fill="#a855f7" opacity="0.7" letter-spacing="1">SYS_ID: DL_DEV_001  //  STATUS: ONLINE  //  LOC: PT  //  FULLSTACK</text>

  <!-- corner brackets -->
  <polyline points="18,50 18,66 34,66" fill="none" stroke="#c026d3" stroke-width="2" opacity="0.8"/>
  <polyline points="802,50 802,66 786,66" fill="none" stroke="#c026d3" stroke-width="2" opacity="0.8"/>
  <polyline points="18,230 18,214 34,214" fill="none" stroke="#c026d3" stroke-width="2" opacity="0.8"/>
  <polyline points="802,230 802,214 786,214" fill="none" stroke="#c026d3" stroke-width="2" opacity="0.8"/>

  <!-- name -->
  <text x="410" y="152" font-family="Courier New, monospace" font-weight="700" font-size="72" fill="#f0eaff" text-anchor="middle" letter-spacing="6">DIOGO <tspan fill="#c026d3">LOPES</tspan></text>

  <!-- role -->
  <text x="410" y="184" font-family="Courier New, monospace" font-size="15" fill="#a855f7" opacity="0.9" text-anchor="middle" letter-spacing="3">// FULLSTACK DEVELOPER — WEB &amp; SOFTWARE</text>

  <line x1="200" y1="198" x2="620" y2="198" stroke="#a855f7" stroke-width="0.8" opacity="0.3"/>

  <!-- tagline -->
  <text x="410" y="218" font-family="Courier New, monospace" font-size="13" fill="#8a7aaa" text-anchor="middle">Self-taught  ·  5 years  ·  Real Estate → Finance  ·  Still learning</text>

  <!-- bottom bar -->
  <rect x="0" y="244" width="820" height="36" fill="#0d0818"/>
  <rect x="0" y="244" width="820" height="1.5" fill="#a855f7" opacity="0.25"/>
  <text x="410" y="266" font-family="Courier New, monospace" font-size="11" fill="#a855f7" opacity="0.4" text-anchor="middle" letter-spacing="1">UPTIME: 3y+ // SINCE 2022-02-01 // diogolopeswork</text>
</svg>
