<svg width="1200" height="340" viewBox="0 0 1200 340" xmlns="http://www.w3.org/2000/svg">
  <rect width="1200" height="340" fill="#08050f"/>

  <!-- grid -->
  <line x1="120" y1="0" x2="120" y2="340" stroke="#a855f7" stroke-width="0.4" opacity="0.1"/>
  <line x1="240" y1="0" x2="240" y2="340" stroke="#a855f7" stroke-width="0.4" opacity="0.1"/>
  <line x1="360" y1="0" x2="360" y2="340" stroke="#a855f7" stroke-width="0.4" opacity="0.1"/>
  <line x1="480" y1="0" x2="480" y2="340" stroke="#a855f7" stroke-width="0.4" opacity="0.1"/>
  <line x1="600" y1="0" x2="600" y2="340" stroke="#a855f7" stroke-width="0.4" opacity="0.1"/>
  <line x1="720" y1="0" x2="720" y2="340" stroke="#a855f7" stroke-width="0.4" opacity="0.1"/>
  <line x1="840" y1="0" x2="840" y2="340" stroke="#a855f7" stroke-width="0.4" opacity="0.1"/>
  <line x1="960" y1="0" x2="960" y2="340" stroke="#a855f7" stroke-width="0.4" opacity="0.1"/>
  <line x1="1080" y1="0" x2="1080" y2="340" stroke="#a855f7" stroke-width="0.4" opacity="0.1"/>
  <line x1="0" y1="85"  x2="1200" y2="85"  stroke="#a855f7" stroke-width="0.4" opacity="0.1"/>
  <line x1="0" y1="170" x2="1200" y2="170" stroke="#a855f7" stroke-width="0.4" opacity="0.1"/>
  <line x1="0" y1="255" x2="1200" y2="255" stroke="#a855f7" stroke-width="0.4" opacity="0.1"/>

  <!-- rain -->
  <line x1="80"  y1="0"   x2="74"  y2="75"  stroke="#c026d3" stroke-width="1" opacity="0.2"/>
  <line x1="200" y1="10"  x2="194" y2="95"  stroke="#c026d3" stroke-width="1" opacity="0.15"/>
  <line x1="390" y1="0"   x2="384" y2="85"  stroke="#c026d3" stroke-width="1" opacity="0.18"/>
  <line x1="620" y1="5"   x2="614" y2="80"  stroke="#c026d3" stroke-width="1" opacity="0.22"/>
  <line x1="780" y1="0"   x2="774" y2="105" stroke="#c026d3" stroke-width="1" opacity="0.16"/>
  <line x1="970" y1="15"  x2="964" y2="100" stroke="#c026d3" stroke-width="1" opacity="0.19"/>
  <line x1="1130" y1="0"  x2="1124" y2="75" stroke="#c026d3" stroke-width="1" opacity="0.21"/>
  <line x1="250" y1="110" x2="244" y2="190" stroke="#c026d3" stroke-width="1" opacity="0.12"/>
  <line x1="520" y1="130" x2="514" y2="220" stroke="#c026d3" stroke-width="1" opacity="0.10"/>
  <line x1="880" y1="95"  x2="874" y2="185" stroke="#c026d3" stroke-width="1" opacity="0.13"/>

  <!-- top bar -->
  <rect x="0" y="0" width="1200" height="46" fill="#0d0818"/>
  <rect x="0" y="45" width="1200" height="1.5" fill="#a855f7" opacity="0.4"/>
  <circle cx="28" cy="23" r="6" fill="#c026d3"/>
  <circle cx="46" cy="23" r="6" fill="#a855f7" opacity="0.5"/>
  <circle cx="64" cy="23" r="6" fill="#7c3aed" opacity="0.3"/>
  <text x="84" y="30" font-family="Courier New, monospace" font-size="13" fill="#a855f7" opacity="0.65" letter-spacing="2">SYS_ID: DL_DEV_001   //   STATUS: ONLINE   //   LOC: PT // PÓVOA   //   BUILD: FULLSTACK</text>

  <!-- corner brackets -->
  <polyline points="26,60 26,80 46,80" fill="none" stroke="#c026d3" stroke-width="2.5" opacity="0.7"/>
  <polyline points="1174,60 1174,80 1154,80" fill="none" stroke="#c026d3" stroke-width="2.5" opacity="0.7"/>
  <polyline points="26,280 26,260 46,260" fill="none" stroke="#c026d3" stroke-width="2.5" opacity="0.7"/>
  <polyline points="1174,280 1174,260 1154,260" fill="none" stroke="#c026d3" stroke-width="2.5" opacity="0.7"/>

  <!-- name -->
  <text x="600" y="182" font-family="Courier New, monospace" font-weight="700" font-size="88" fill="#f0eaff" text-anchor="middle" letter-spacing="8">DIOGO <tspan fill="#c026d3">LOPES</tspan></text>

  <!-- role -->
  <text x="600" y="220" font-family="Courier New, monospace" font-size="18" fill="#a855f7" opacity="0.9" text-anchor="middle" letter-spacing="4">// FULLSTACK DEVELOPER — WEB &amp; SOFTWARE</text>

  <!-- divider -->
  <line x1="300" y1="238" x2="900" y2="238" stroke="#a855f7" stroke-width="0.8" opacity="0.3"/>

  <!-- tagline -->
  <text x="600" y="262" font-family="Courier New, monospace" font-size="15" fill="#7a6a98" text-anchor="middle" letter-spacing="1">Self-taught  ·  5 years  ·  Real Estate → Finance  ·  Still learning</text>

  <!-- bottom bar -->
  <rect x="0" y="298" width="1200" height="42" fill="#0d0818"/>
  <rect x="0" y="298" width="1200" height="1.5" fill="#a855f7" opacity="0.25"/>
  <text x="600" y="324" font-family="Courier New, monospace" font-size="13" fill="#a855f7" opacity="0.4" text-anchor="middle" letter-spacing="2">UPTIME: 3y+ // SINCE 2022-02-01 // diogolopeswork</text>
</svg>
