<svg width="900" height="300" viewBox="0 0 900 300" xmlns="http://www.w3.org/2000/svg">
  <rect width="900" height="300" fill="#08050f"/>

  <line x1="100" y1="0" x2="100" y2="300" stroke="#a855f7" stroke-width="0.3" opacity="0.1"/>
  <line x1="200" y1="0" x2="200" y2="300" stroke="#a855f7" stroke-width="0.3" opacity="0.1"/>
  <line x1="300" y1="0" x2="300" y2="300" stroke="#a855f7" stroke-width="0.3" opacity="0.1"/>
  <line x1="400" y1="0" x2="400" y2="300" stroke="#a855f7" stroke-width="0.3" opacity="0.1"/>
  <line x1="500" y1="0" x2="500" y2="300" stroke="#a855f7" stroke-width="0.3" opacity="0.1"/>
  <line x1="600" y1="0" x2="600" y2="300" stroke="#a855f7" stroke-width="0.3" opacity="0.1"/>
  <line x1="700" y1="0" x2="700" y2="300" stroke="#a855f7" stroke-width="0.3" opacity="0.1"/>
  <line x1="800" y1="0" x2="800" y2="300" stroke="#a855f7" stroke-width="0.3" opacity="0.1"/>
  <line x1="0" y1="60"  x2="900" y2="60"  stroke="#a855f7" stroke-width="0.3" opacity="0.1"/>
  <line x1="0" y1="120" x2="900" y2="120" stroke="#a855f7" stroke-width="0.3" opacity="0.1"/>
  <line x1="0" y1="180" x2="900" y2="180" stroke="#a855f7" stroke-width="0.3" opacity="0.1"/>
  <line x1="0" y1="240" x2="900" y2="240" stroke="#a855f7" stroke-width="0.3" opacity="0.1"/>

  <line x1="55"  y1="0"   x2="50"  y2="55"  stroke="#c026d3" stroke-width="0.7" opacity="0.25"/>
  <line x1="140" y1="10"  x2="135" y2="80"  stroke="#c026d3" stroke-width="0.7" opacity="0.18"/>
  <line x1="290" y1="0"   x2="285" y2="70"  stroke="#c026d3" stroke-width="0.7" opacity="0.20"/>
  <line x1="460" y1="5"   x2="455" y2="65"  stroke="#c026d3" stroke-width="0.7" opacity="0.22"/>
  <line x1="580" y1="0"   x2="575" y2="90"  stroke="#c026d3" stroke-width="0.7" opacity="0.16"/>
  <line x1="730" y1="15"  x2="725" y2="85"  stroke="#c026d3" stroke-width="0.7" opacity="0.19"/>
  <line x1="850" y1="0"   x2="845" y2="60"  stroke="#c026d3" stroke-width="0.7" opacity="0.21"/>
  <line x1="180" y1="90"  x2="175" y2="160" stroke="#c026d3" stroke-width="0.7" opacity="0.13"/>
  <line x1="390" y1="110" x2="385" y2="190" stroke="#c026d3" stroke-width="0.7" opacity="0.11"/>
  <line x1="660" y1="80"  x2="655" y2="155" stroke="#c026d3" stroke-width="0.7" opacity="0.14"/>
  <line x1="820" y1="100" x2="815" y2="170" stroke="#c026d3" stroke-width="0.7" opacity="0.12"/>
  <line x1="70"  y1="150" x2="65"  y2="220" stroke="#c026d3" stroke-width="0.7" opacity="0.10"/>
  <line x1="500" y1="170" x2="495" y2="250" stroke="#c026d3" stroke-width="0.7" opacity="0.09"/>

  <rect x="0" y="0" width="900" height="36" fill="#0d0818"/>
  <rect x="0" y="35" width="900" height="1" fill="#a855f7" opacity="0.35"/>
  <circle cx="20" cy="18" r="4" fill="#c026d3"/>
  <circle cx="34" cy="18" r="4" fill="#a855f7" opacity="0.5"/>
  <circle cx="48" cy="18" r="4" fill="#7c3aed" opacity="0.3"/>
  <text x="66" y="23" font-family="Courier New, monospace" font-size="10" fill="#a855f7" opacity="0.65" letter-spacing="1.5">SYS_ID: DL_DEV_001   //   STATUS: ONLINE   //   LOC: PT   //   BUILD: FULLSTACK</text>

  <polyline points="18,48 18,62 32,62" fill="none" stroke="#c026d3" stroke-width="1.5" opacity="0.7"/>
  <polyline points="882,48 882,62 868,62" fill="none" stroke="#c026d3" stroke-width="1.5" opacity="0.7"/>
  <polyline points="18,252 18,238 32,238" fill="none" stroke="#c026d3" stroke-width="1.5" opacity="0.7"/>
  <polyline points="882,252 882,238 868,238" fill="none" stroke="#c026d3" stroke-width="1.5" opacity="0.7"/>

  <text x="450" y="148" font-family="Courier New, monospace" font-weight="700" font-size="64" fill="#f0eaff" text-anchor="middle" letter-spacing="6">DIOGO <tspan fill="#c026d3">LOPES</tspan></text>
  <text x="450" y="180" font-family="Courier New, monospace" font-size="14" fill="#a855f7" opacity="0.8" text-anchor="middle" letter-spacing="3">// FULLSTACK DEVELOPER — WEB &amp; SOFTWARE</text>

  <line x1="220" y1="198" x2="680" y2="198" stroke="#a855f7" stroke-width="0.6" opacity="0.3"/>

  <text x="450" y="222" font-family="Courier New, monospace" font-size="11" fill="#6a5a80" text-anchor="middle" letter-spacing="1">Self-taught  ·  5 years  ·  Real Estate → Finance  ·  Still learning</text>

  <rect x="0" y="262" width="900" height="38" fill="#0d0818"/>
  <rect x="0" y="262" width="900" height="1" fill="#a855f7" opacity="0.2"/>
  <text x="450" y="284" font-family="Courier New, monospace" font-size="10" fill="#a855f7" opacity="0.35" text-anchor="middle" letter-spacing="2">UPTIME: 3y+ // SINCE 2022-02-01 // diogolopeswork</text>
</svg>
