<svg width="1200" height="310" viewBox="0 0 1200 310" xmlns="http://www.w3.org/2000/svg">
  <rect width="1200" height="310" fill="#0d0818"/>

  <rect x="0" y="0" width="1200" height="48" fill="#08050f"/>
  <rect x="0" y="47" width="1200" height="1" fill="#a855f7" opacity="0.4"/>
  <circle cx="28" cy="24" r="6" fill="#c026d3"/>
  <circle cx="46" cy="24" r="6" fill="#a855f7" opacity="0.5"/>
  <circle cx="64" cy="24" r="6" fill="#7c3aed" opacity="0.3"/>
  <text x="86" y="31" font-family="Courier New, monospace" font-size="15" fill="#a855f7" opacity="0.7" letter-spacing="3">// TECH_STACK</text>

  <!-- Frontend label -->
  <text x="60" y="86" font-family="Courier New, monospace" font-size="12" fill="#c026d3" letter-spacing="4">FRONTEND</text>
  <line x1="170" y1="80" x2="1140" y2="80" stroke="#a855f7" stroke-width="0.6" opacity="0.25"/>

  <rect x="60"  y="96" width="120" height="40" rx="4" fill="#160a28" stroke="#a855f7" stroke-width="1.2"/>
  <text x="120" y="121" font-family="Courier New, monospace" font-size="15" fill="#d0b0ff" text-anchor="middle">Vue.js</text>

  <rect x="192" y="96" width="155" height="40" rx="4" fill="#160a28" stroke="#a855f7" stroke-width="1.2"/>
  <text x="269" y="121" font-family="Courier New, monospace" font-size="15" fill="#d0b0ff" text-anchor="middle">JavaScript</text>

  <rect x="359" y="96" width="160" height="40" rx="4" fill="#160a28" stroke="#a855f7" stroke-width="1.2"/>
  <text x="439" y="121" font-family="Courier New, monospace" font-size="15" fill="#d0b0ff" text-anchor="middle">TypeScript</text>

  <rect x="531" y="96" width="115" height="40" rx="4" fill="#160a28" stroke="#a855f7" stroke-width="1.2"/>
  <text x="588" y="121" font-family="Courier New, monospace" font-size="15" fill="#d0b0ff" text-anchor="middle">HTML5</text>

  <rect x="658" y="96" width="100" height="40" rx="4" fill="#160a28" stroke="#a855f7" stroke-width="1.2"/>
  <text x="708" y="121" font-family="Courier New, monospace" font-size="15" fill="#d0b0ff" text-anchor="middle">CSS3</text>

  <!-- Backend label -->
  <text x="60" y="178" font-family="Courier New, monospace" font-size="12" fill="#c026d3" letter-spacing="4">BACKEND</text>
  <line x1="162" y1="172" x2="1140" y2="172" stroke="#a855f7" stroke-width="0.6" opacity="0.25"/>

  <rect x="60"  y="188" width="90"  height="40" rx="4" fill="#1a0820" stroke="#c026d3" stroke-width="1.2"/>
  <text x="105" y="213" font-family="Courier New, monospace" font-size="15" fill="#f0b0e8" text-anchor="middle">C#</text>

  <rect x="162" y="188" width="100" height="40" rx="4" fill="#1a0820" stroke="#c026d3" stroke-width="1.2"/>
  <text x="212" y="213" font-family="Courier New, monospace" font-size="15" fill="#f0b0e8" text-anchor="middle">.NET</text>

  <rect x="274" y="188" width="145" height="40" rx="4" fill="#1a0820" stroke="#c026d3" stroke-width="1.2"/>
  <text x="346" y="213" font-family="Courier New, monospace" font-size="15" fill="#f0b0e8" text-anchor="middle">.NET Core</text>

  <rect x="431" y="188" width="155" height="40" rx="4" fill="#1a0820" stroke="#c026d3" stroke-width="1.2"/>
  <text x="508" y="213" font-family="Courier New, monospace" font-size="15" fill="#f0b0e8" text-anchor="middle">PostgreSQL</text>

  <rect x="598" y="188" width="155" height="40" rx="4" fill="#1a0820" stroke="#c026d3" stroke-width="1.2"/>
  <text x="675" y="213" font-family="Courier New, monospace" font-size="15" fill="#f0b0e8" text-anchor="middle">SQL Server</text>

  <line x1="60" y1="264" x2="1140" y2="264" stroke="#a855f7" stroke-width="0.5" opacity="0.12"/>
  <text x="600" y="288" font-family="Courier New, monospace" font-size="13" fill="#4a3a60" text-anchor="middle" letter-spacing="2">Fullstack · Web Apps · Desktop Software · Legacy Systems · Financial Grade</text>

  <rect x="0" y="298" width="1200" height="12" fill="#08050f"/>
  <rect x="0" y="298" width="1200" height="1" fill="#a855f7" opacity="0.2"/>
</svg>
