<svg width="1200" height="320" viewBox="0 0 1200 320" xmlns="http://www.w3.org/2000/svg">
  <rect width="1200" height="320" fill="#0d0818"/>

  <rect x="0" y="0" width="1200" height="52" fill="#08050f"/>
  <rect x="0" y="51" width="1200" height="1.5" fill="#a855f7" opacity="0.5"/>
  <circle cx="30" cy="26" r="7" fill="#c026d3"/>
  <circle cx="50" cy="26" r="7" fill="#a855f7" opacity="0.5"/>
  <circle cx="70" cy="26" r="7" fill="#7c3aed" opacity="0.3"/>
  <text x="94" y="34" font-family="Courier New, monospace" font-size="17" fill="#a855f7" opacity="0.8" letter-spacing="3">// TECH_STACK</text>

  <!-- Frontend -->
  <text x="64" y="90" font-family="Courier New, monospace" font-size="13" fill="#e040fb" letter-spacing="5">FRONTEND</text>
  <line x1="188" y1="84" x2="1140" y2="84" stroke="#a855f7" stroke-width="0.8" opacity="0.3"/>

  <rect x="64"  y="100" width="130" height="46" rx="5" fill="#160a28" stroke="#a855f7" stroke-width="1.5"/>
  <text x="129" y="128" font-family="Courier New, monospace" font-size="17" fill="#dbbfff" text-anchor="middle">Vue.js</text>

  <rect x="206" y="100" width="168" height="46" rx="5" fill="#160a28" stroke="#a855f7" stroke-width="1.5"/>
  <text x="290" y="128" font-family="Courier New, monospace" font-size="17" fill="#dbbfff" text-anchor="middle">JavaScript</text>

  <rect x="386" y="100" width="175" height="46" rx="5" fill="#160a28" stroke="#a855f7" stroke-width="1.5"/>
  <text x="473" y="128" font-family="Courier New, monospace" font-size="17" fill="#dbbfff" text-anchor="middle">TypeScript</text>

  <rect x="573" y="100" width="124" height="46" rx="5" fill="#160a28" stroke="#a855f7" stroke-width="1.5"/>
  <text x="635" y="128" font-family="Courier New, monospace" font-size="17" fill="#dbbfff" text-anchor="middle">HTML5</text>

  <rect x="709" y="100" width="110" height="46" rx="5" fill="#160a28" stroke="#a855f7" stroke-width="1.5"/>
  <text x="764" y="128" font-family="Courier New, monospace" font-size="17" fill="#dbbfff" text-anchor="middle">CSS3</text>

  <!-- Backend -->
  <text x="64" y="188" font-family="Courier New, monospace" font-size="13" fill="#e040fb" letter-spacing="5">BACKEND</text>
  <line x1="176" y1="182" x2="1140" y2="182" stroke="#a855f7" stroke-width="0.8" opacity="0.3"/>

  <rect x="64"  y="198" width="100" height="46" rx="5" fill="#1a0820" stroke="#c026d3" stroke-width="1.5"/>
  <text x="114" y="226" font-family="Courier New, monospace" font-size="17" fill="#f5b8f0" text-anchor="middle">C#</text>

  <rect x="176" y="198" width="112" height="46" rx="5" fill="#1a0820" stroke="#c026d3" stroke-width="1.5"/>
  <text x="232" y="226" font-family="Courier New, monospace" font-size="17" fill="#f5b8f0" text-anchor="middle">.NET</text>

  <rect x="300" y="198" width="158" height="46" rx="5" fill="#1a0820" stroke="#c026d3" stroke-width="1.5"/>
  <text x="379" y="226" font-family="Courier New, monospace" font-size="17" fill="#f5b8f0" text-anchor="middle">.NET Core</text>

  <rect x="470" y="198" width="168" height="46" rx="5" fill="#1a0820" stroke="#c026d3" stroke-width="1.5"/>
  <text x="554" y="226" font-family="Courier New, monospace" font-size="17" fill="#f5b8f0" text-anchor="middle">PostgreSQL</text>

  <rect x="650" y="198" width="168" height="46" rx="5" fill="#1a0820" stroke="#c026d3" stroke-width="1.5"/>
  <text x="734" y="226" font-family="Courier New, monospace" font-size="17" fill="#f5b8f0" text-anchor="middle">SQL Server</text>

  <line x1="64" y1="272" x2="1140" y2="272" stroke="#a855f7" stroke-width="0.5" opacity="0.12"/>
  <text x="600" y="298" font-family="Courier New, monospace" font-size="14" fill="#5a4a70" text-anchor="middle" letter-spacing="2">Fullstack · Web Apps · Desktop Software · Legacy Systems · Financial Grade</text>

  <rect x="0" y="308" width="1200" height="12" fill="#08050f"/>
  <rect x="0" y="308" width="1200" height="1.5" fill="#a855f7" opacity="0.2"/>
</svg>
